<svg xmlns="http://www.w3.org/2000/svg" width="40.305" height="39.489" viewBox="0 0 40.305 39.489"><defs><style>.a{fill:#fff;}</style></defs><g transform="translate(6.555 -14.128)"><path class="a" d="M25.551,23.714c.81,3.718-3.227,4.525-5.005,4.04a31.157,31.157,0,0,0-5.405-.565,31.249,31.249,0,0,0-5.415.565c-1.778.487-5.819-.323-5.012-4.04s4.363-3.556,5.338-8.568,5.093-4.689,5.093-4.689,4.111-.323,5.083,4.689S24.744,20,25.551,23.714ZM18.872,10.131c2.188.632,4.605-1.1,5.4-3.859S23.944.762,21.756.13s-4.605,1.1-5.4,3.859S16.683,9.5,18.872,10.131Zm9.069-1.005c-2.108-.861-4.7.6-5.782,3.261S21.9,17.9,24.008,18.759s4.7-.6,5.782-3.261S30.049,9.986,27.941,9.126ZM11.392,10.131c2.188-.632,3.314-3.382,2.518-6.141S10.693-.5,8.508.134,5.194,3.515,5.991,6.275,9.2,10.763,11.392,10.131ZM6.259,18.759c2.108-.861,2.935-3.714,1.849-6.373S4.434,8.265,2.327,9.126-.608,12.84.478,15.5,4.152,19.62,6.259,18.759Z" transform="translate(7.806 14.128) rotate(31)"/></g></svg>