<svg xmlns="http://www.w3.org/2000/svg" xmlns:xlink="http://www.w3.org/1999/xlink" width="138.054" height="173.36" viewBox="0 0 138.054 173.36"><defs><style>.a{fill:#2ab71a;}.b,.c,.e{fill:#fff;}.b{font-size:22px;font-family:Montserrat-Regular, Montserrat;letter-spacing:0.01em;}.c{font-size:45px;font-family:LoveYaLikeASister-Regular, Love Ya Like A Sister;}.d{fill:none;stroke:#fff;stroke-width:0.5px;}.f{filter:url(#a);}</style><filter id="a" x="0" y="0" width="138.054" height="173.36" filterUnits="userSpaceOnUse"><feOffset dy="3" input="SourceAlpha"/><feGaussianBlur stdDeviation="3" result="b"/><feFlood flood-opacity="0.161"/><feComposite operator="in" in2="b"/><feComposite in="SourceGraphic"/></filter></defs><g transform="translate(9 6)"><g class="f" transform="matrix(1, 0, 0, 1, -9, -6)"><rect class="a" width="112.374" height="149.684" transform="translate(16.83 6) rotate(3)"/></g><text class="b" transform="translate(24.452 110.575) rotate(5)"><tspan x="0" y="21">ans</tspan></text><text class="c" transform="matrix(0.998, 0.07, -0.07, 0.998, 29.797, 62.413)"><tspan x="0" y="41">+10</tspan></text><line class="d" x1="55" y1="5" transform="translate(26.097 111.952)"/><g transform="matrix(0.588, 0.809, -0.809, 0.588, 109.039, 111.626)"><path class="e" d="M13.369,12.408c.424,1.945-1.688,2.367-2.619,2.114a16.3,16.3,0,0,0-2.828-.3,16.35,16.35,0,0,0-2.833.3c-.93.255-3.044-.169-2.622-2.114s2.283-1.861,2.793-4.483a2.671,2.671,0,0,1,5.324,0C11.089,10.547,12.946,10.462,13.369,12.408ZM9.874,5.3A2.489,2.489,0,0,0,12.7,3.281,2.489,2.489,0,0,0,11.383.068,2.489,2.489,0,0,0,8.557,2.087,2.489,2.489,0,0,0,9.874,5.3Zm4.745-.526a2.489,2.489,0,0,0-3.025,1.706,2.488,2.488,0,0,0,.967,3.335,2.49,2.49,0,0,0,3.025-1.706A2.488,2.488,0,0,0,14.619,4.775ZM5.961,5.3A2.489,2.489,0,0,0,7.278,2.087,2.489,2.489,0,0,0,4.452.07,2.491,2.491,0,0,0,3.134,3.283,2.489,2.489,0,0,0,5.961,5.3ZM3.275,9.815a2.489,2.489,0,0,0,.967-3.335A2.49,2.49,0,0,0,1.217,4.775,2.489,2.489,0,0,0,.25,8.109,2.488,2.488,0,0,0,3.275,9.815Z" transform="translate(0.959 14.128) rotate(31)"/></g></g></svg>