<svg xmlns="http://www.w3.org/2000/svg" xmlns:xlink="http://www.w3.org/1999/xlink" width="133.272" height="169.856" viewBox="0 0 133.272 169.856"><defs><style>.a{fill:#ff5757;}.b{fill:#fff;}.c{fill:none;stroke:#fff;stroke-width:0.5px;}.d{filter:url(#a);}</style><filter id="a" x="0" y="0" width="133.272" height="169.856" filterUnits="userSpaceOnUse"><feOffset dy="3" input="SourceAlpha"/><feGaussianBlur stdDeviation="3" result="b"/><feFlood flood-opacity="0.161"/><feComposite operator="in" in2="b"/><feComposite in="SourceGraphic"/></filter></defs><g transform="translate(11.822 2.073) rotate(3)"><g class="d" transform="matrix(1, -0.05, 0.05, 1, -11.91, -1.45)"><path class="a" d="M0,0H112.673V149.912H0Z" transform="translate(11.62 6) rotate(1)"/></g><g transform="translate(30.803 90.017)"><path class="b" d="M9.813,11.251H7.688V9.772A4.559,4.559,0,0,1,4,11.417a4.23,4.23,0,0,1-2.865-.979A3.279,3.279,0,0,1,0,7.823,2.752,2.752,0,0,1,1.208,5.375a5.787,5.787,0,0,1,3.271-.813H7.5V4.146q0-2.208-2.459-2.208A5.765,5.765,0,0,0,1.833,3.063L.792,1.6A7.176,7.176,0,0,1,5.375,0a4.969,4.969,0,0,1,3.2.99A3.747,3.747,0,0,1,9.813,4.1ZM7.48,7.126V6.188H4.855q-2.521,0-2.521,1.583a1.408,1.408,0,0,0,.625,1.24,3.054,3.054,0,0,0,1.74.427,3.157,3.157,0,0,0,1.948-.625A2,2,0,0,0,7.48,7.126ZM15.605,5.25v6H13.272V.167h2.334V2.188A4.2,4.2,0,0,1,19.293,0a4.12,4.12,0,0,1,3.031,1.146,4.461,4.461,0,0,1,1.156,3.313v6.792H21.147V5.167q0-3.063-2.542-3.063a3.053,3.053,0,0,0-2.1.8A2.983,2.983,0,0,0,15.605,5.25ZM34.836,7.938a3.118,3.118,0,0,1-1.146,2.531,4.456,4.456,0,0,1-2.938.948,7.869,7.869,0,0,1-2.511-.438,7.544,7.544,0,0,1-2.3-1.229l1.125-1.813A6.288,6.288,0,0,0,30.815,9.4a1.955,1.955,0,0,0,1.25-.365,1.135,1.135,0,0,0,.458-.927q0-.833-2.208-1.5a2.556,2.556,0,0,0-.25-.083Q26.606,5.584,26.606,3.4A2.965,2.965,0,0,1,27.8.927,4.946,4.946,0,0,1,30.919,0a6.48,6.48,0,0,1,3.625,1.125l-.875,1.729a5.221,5.221,0,0,0-2.938-.9,2.679,2.679,0,0,0-1.354.3.983.983,0,0,0-.521.906.828.828,0,0,0,.542.792,5.237,5.237,0,0,0,1.052.354q.677.167,1.2.333t1.01.375a6.545,6.545,0,0,1,1.052.583A2.606,2.606,0,0,1,34.836,7.938Z" transform="matrix(0.999, 0.035, -0.035, 0.999, 20.627, 34.212)"/><path class="b" d="M0,2.713.125,2.63q2.3.25,7.931.668a36.142,36.142,0,0,0,6.178.877q2.129.5,2.129,1.127a7.572,7.572,0,0,1-1.377,2.045,26.345,26.345,0,0,1-1.92,2.546q0,.376-2.254,2.421l-.459.626v.125a18.324,18.324,0,0,0,2.713-.417,11.245,11.245,0,0,1,3.548,1.711,9.372,9.372,0,0,1,1.5,3.256v.459q0,5.552-.96,6.887-.793,2.3-4.341,4.758A30.466,30.466,0,0,1,6.47,31.682a5.858,5.858,0,0,1-1.67.167H4.508l-.25.083a5.6,5.6,0,0,1-3.214-.877V30.93a9.738,9.738,0,0,0,.835-1.711H3.3A7.347,7.347,0,0,0,8.724,27.34l3.59-2.3a7.8,7.8,0,0,0,2.254-2.63,8.625,8.625,0,0,0,.835-4.383q-.042-.417-.125-.417l.125-.334a1.509,1.509,0,0,0-.835-1.336,1.269,1.269,0,0,0-1.294-.835H12.23q-.835,0-.835.209V15.4a3.939,3.939,0,0,1,2.671.835v.083l-.125.083A1.9,1.9,0,0,1,12.9,15.82l-.376-.042a18.653,18.653,0,0,0-7.639,2.129l-.417.25-.209-.083V17.74a1.141,1.141,0,0,0-.417-.71v-.042a24.324,24.324,0,0,1,.96-2.254,3.529,3.529,0,0,1,.751-1.419l1.711-2.588A5.427,5.427,0,0,1,9.1,8.181a1.223,1.223,0,0,0,.376-.793V7.263a1.433,1.433,0,0,0-.793-.334L.877,6.762q-.376,0-.459-.71V5.886l.042-.167V5.552A25.217,25.217,0,0,1,0,2.713Zm1.711.459-.167.167v.417h.71L3.3,3.84l.167-.167A3.086,3.086,0,0,0,1.711,3.172ZM.543,3.84a.325.325,0,0,0,.334.209L.96,3.924V3.84L.835,3.673H.668Q.543,3.673.543,3.84ZM5.8,3.965H5.677v.083h.042Zm7.931.543h-.918q0,.25.793.292h.083l.167-.125V4.633Zm-9.6.25a43.64,43.64,0,0,0,4.884.25h.5q0-.292-3.047-.417H5.343Q4.132,4.592,4.132,4.758Zm-2.171,0L1.795,4.8q0,.376,2.087.5l.083-.042V5.176a2.989,2.989,0,0,0-1.795-.417Zm13.148.5V5.3q.042.167.334.167h.167A.361.361,0,0,0,15.9,5.3q0-.25-.5-.25A1.114,1.114,0,0,0,15.11,5.259ZM4.675,5.134l-.042.042v.042q0,.209,1.461.209H7.6Q7.6,5.176,4.675,5.134Zm5.134.334H8.724v.083l2.087.334L12.9,5.719V5.635A18.218,18.218,0,0,0,9.809,5.468ZM1.127,5.8v.083q0,.334,1.711.334H4.55V6.094q0-.167-1.795-.209,0-.209-1.044-.25H1.544Q1.169,5.635,1.127,5.8Zm5.009.292H5.259q0,.209,1.085.209H6.47Q6.47,6.094,6.136,6.094Zm8.1.543-.376.292q.125.584.417.584a.959.959,0,0,0,.292-.584V6.72l-.083-.083Zm-3.882.584-.083.125V7.43h.25l.083-.083V7.221Zm.25.918v.125h.083q.5,0,.793-.751L11.4,7.472h-.042Q10.6,7.68,10.6,8.14Zm3.131-.083h-.209v.125h.125l.083-.042Zm-.417.376h-.083v.125h.083Zm-2.5,2.63-.042.125.083.125a3.3,3.3,0,0,0,1.753-1.419l.209-.543-.042-.042h-.25Q12.021,9.308,10.811,11.061ZM8.6,11.145h.083q.626-.376.626-.835v-.042H9.225A.806.806,0,0,0,8.6,11.145Zm.877-.167v.167H9.6a.67.67,0,0,0,.292-.459l-.042-.042A1.288,1.288,0,0,0,9.475,10.978Zm1.085.626-.125.125v.209h.125l.083-.083V11.6ZM6.136,13.065v.083l.083.083H6.6l.793-.626.042-.25v-.083l-.083-.083H7.263A1.9,1.9,0,0,0,6.136,13.065Zm3.757,1.377v.042h.042l1.711-.543a20.3,20.3,0,0,1,2.463.334.224.224,0,0,0,.25-.167H14.4a3.132,3.132,0,0,0,1.628.793H16.2l.042-.125v-.042q0-.459-2.88-1.169-.125,0-.25-.334l-.209-.167h-.125a3.164,3.164,0,0,0-2.087,1Q9.934,14.275,9.893,14.442Zm-.751-1.21H9.1V13.4l.042.042h.167V13.4Zm-3.59,1.252v.125h.042a1.724,1.724,0,0,0,.793-.96H6.3A2.252,2.252,0,0,0,5.552,14.484Zm1.336.125v.25h.167q.5,0,.751-.793l-.125-.125A1.925,1.925,0,0,0,6.887,14.609Zm.334,1.336v.042h.125q2.8-.668,2.8-.96v-.042h-.125A6.989,6.989,0,0,0,7.221,15.945Zm-1.962.125V16.2l.042.042v.083a4.883,4.883,0,0,0,2.087-.793v-.042l-.125-.167A5.008,5.008,0,0,0,5.259,16.07Zm10.811-.751h-.459V15.4q.209.584.584.584h.292q.417,0,.5-.209A1.146,1.146,0,0,0,16.07,15.319Zm.584,1.127-.042.125v.042a2.977,2.977,0,0,0,.668,1.252l-.042.793v.96q0,.459.167.5h.083l.083-.918V17.74a1.649,1.649,0,0,0-.751-1.294Zm-12.1.5v.042l.083.125h.376q.376,0,.417-.167v-.125a.325.325,0,0,0-.334-.209H5.009Q4.758,16.613,4.55,16.947Zm10.31,0v-.125l.25.292h-.083Zm1,1h-.083v.083l.083.125h.083v-.125Zm-.25,2.3v.167l.083.125a2.949,2.949,0,0,0,.5-1.461v-.5H16.07A2.545,2.545,0,0,0,15.611,20.244Zm1.878.292-.417.793a.374.374,0,0,0,.209.25h.083a.526.526,0,0,0,.292-.543Q17.615,20.537,17.49,20.537Zm-1.628,2v.083h.167l.209-.25v-.25h-.125A.491.491,0,0,0,15.862,22.54Zm-.376,1.377.125.042.835-.543v-.083l-.125-.083h-.083Q15.9,23.25,15.486,23.918Zm-1.795,1.294h.167a1.26,1.26,0,0,0,.877-.5v-.083l-.167-.459.167-.417q-.376,0-.751.96A.8.8,0,0,0,13.691,25.212Zm2.922-1.169-.125.125v.042h.167v-.167Zm-1.5,1.336v.083l.292.042h.292q.626-.042.626-.5a.3.3,0,0,0-.292-.209A1.34,1.34,0,0,0,15.11,25.379ZM8.6,28.134h.125q3.757-1.586,3.757-2.3h-.25a17.818,17.818,0,0,0-3.005,1.795Q8.6,28.05,8.6,28.134Zm6.6-1.711v.042H15.4q.125,0,.292-.376L15.611,26Q15.194,26.13,15.194,26.422Zm-.459-.334-.167.167V26.3h.209l.125-.083-.125-.125Zm-1.085,1.67h.042a1.66,1.66,0,0,0,.96-.417q0-.125-.167-.125Q13.649,27.424,13.649,27.758Zm-3.214.71v.083h.083q.877-.25.877-.459V28.05h-.042A1.277,1.277,0,0,0,10.435,28.467Zm2.63-.042-.167.125v.125h.292l.125-.167v-.083ZM3.214,29.72l.125.125h.71l.167-.125q0-.125-.459-.125Q3.214,29.594,3.214,29.72Zm3.84-.125-.083.125v.125q.334,0,.417-.209v-.042Zm3.381.543.083.083h.042a2.8,2.8,0,0,0,1-.459l-.083-.167h-.25Q10.435,29.761,10.435,30.137Zm-8.1-.209-.167.125v.083h.417l.125-.083-.125-.125Zm3.381.877-1.461.125-.918-.209H3.005q-.877.083-.877.334V31.1q0,.209,2.671.376a10.094,10.094,0,0,0,3.381-.918l.083-.042v-.167H8.181A15.544,15.544,0,0,0,5.719,30.8ZM35.563.292q1.044.167,1.044.5.584.209.584.376a3.141,3.141,0,0,0-.5.835l.25.376v.042a2.566,2.566,0,0,1-.459.918A123.713,123.713,0,0,1,29.97,16.07q-1.878,4.049-2.546,5.092a58.182,58.182,0,0,0-3.965,8.181l-.835,1.336.459.668q0,.209-.543.5h-.125q-.668,0-1.962-1.294-.835-.334-.835-.793l.083-.417a40.01,40.01,0,0,1,2.087-4.967q.459-1.586.918-1.586h.209v-.083q0-.125-.459-.209v-.042l1.67-3.757a2.036,2.036,0,0,0,.5-1.127,3.924,3.924,0,0,0,1.294-1.837l-.083-.459a2.935,2.935,0,0,1,.793-1l4.592-9.225Q32.892,0,34.269,0A2.409,2.409,0,0,1,35.563.292Zm-2.087.877-.167-.125q-.25,0-.626,1.67V2.8h.042a3.119,3.119,0,0,0,.751-1.461ZM34.645,2.88v.042h.042a.623.623,0,0,0,.376-.626V2.254A.8.8,0,0,0,34.645,2.88ZM33.6,7.43v.125h.25l.125-.167v-.25A.4.4,0,0,0,33.6,7.43Zm-3.339,3.381h-.042q-.25,0-.793,1.5v.042l.042.042a3.36,3.36,0,0,0,.793-1.461ZM26.756,18.7a.3.3,0,0,0,.292-.209A.3.3,0,0,0,26.756,18.7Zm-1.544.209H25.17l-.042-.083-.25.167-1.044,2q-.918.918-.918,1.252v.167q0,.125.25.209A12.65,12.65,0,0,0,25.212,18.909Zm1.419.209h-.042a1.837,1.837,0,0,0-.5,1v.042h.125Q26.38,20.161,26.631,19.117ZM25,22.415l-.083-.125q-.376.209-.793,1.67l.083.125h.042A4.478,4.478,0,0,0,25,22.624Zm-3.214,3.631-.083-.125q-.209,0-.334.668l.125.083h.083a.638.638,0,0,0,.209-.459Zm1.711.877h-.042a5.051,5.051,0,0,0-.668,1.586l.125.083a2.275,2.275,0,0,0,.584-1.544Zm-1.711.543v.042h.125a.5.5,0,0,0,.25-.292l-.042-.083A.9.9,0,0,0,21.789,27.466Zm-.584-.334h-.125l-.083.25v.083h.125l.083-.125Zm-.376,2.087-.125-.042q-.334,0-.5.417,0,.25.167.292h.083q.376,0,.376-.417Zm2,1.962-.125-.125h-.25l-.083.042v.167l.25.042h.125ZM50.924,4.592q2.713,0,3.131.417-.334.25-.334.459v.083l.167.877V6.47q0,1.294-.5,1.294l-.626-.209h-.167l-1.878.25-.626-.042q-.543.042-2.922,2.254l-.25.376a3.145,3.145,0,0,0-1.294,1.336A9.975,9.975,0,0,0,44.2,13.983q-.125,0-.334.71a3.181,3.181,0,0,0-1.336,1.628A15.384,15.384,0,0,0,41.2,18.408a5.862,5.862,0,0,0-.835,1.377l-.167.167v.042h.209q.167,0,.71-.877a13.323,13.323,0,0,0,2.045-1.252,9.512,9.512,0,0,1,3.423-1.419,9.523,9.523,0,0,1,4.007,1.169,10.37,10.37,0,0,1,2.421,2.8,3.6,3.6,0,0,1,.96,2.379,17.127,17.127,0,0,1-1.461,4.842A29.156,29.156,0,0,0,50.3,30.721l.083.25A5.463,5.463,0,0,1,48.8,32.015q-3.924-.209-4.466-.292a7.485,7.485,0,0,0-2-.835l-1.795-1.294a7.627,7.627,0,0,1-1.795-4.925,11.414,11.414,0,0,1-.292-2.88,11.988,11.988,0,0,1,1-3.465,8.113,8.113,0,0,1,1-2.838q.5-2.671,3.506-6.178Q47.919,5.3,48.336,5.3A7.264,7.264,0,0,1,50.924,4.592Zm2.379.584h-.25v.083l.209.167H53.3l.083-.125V5.259ZM41.491,13.983v.167h.125q.125,0,.125-.334A12.847,12.847,0,0,0,44,10.477Q47.5,6.72,48.545,6.512q1.544-.751,1.544-1.21V5.218h-.125a5.709,5.709,0,0,0-2.713,1.419q-2.838,2.838-3.882,4.091A9.977,9.977,0,0,0,41.491,13.983ZM51.175,5.8v.083h.668a1.407,1.407,0,0,0,.793-.25v-.25l-.125-.167h-.376A1.6,1.6,0,0,0,51.175,5.8Zm1.67-.25-.083.125v.042l.083.167h.167l.125-.167V5.677l-.125-.125ZM47.418,7.806v.167H47.5a18,18,0,0,0,2.087-1.044,1.186,1.186,0,0,0,.96-.459V6.428h-.125A10.007,10.007,0,0,0,47.418,7.806ZM50.8,7.221v.167h.25a6.268,6.268,0,0,0,1.5-.543V6.72l-.292-.042A2.645,2.645,0,0,0,50.8,7.221Zm-8.891,7.3-.167.083.083.167h.042q.25,0,1.085-1.336,1-1.294,2.087-2.5a29.962,29.962,0,0,1,3.005-2.671l.25-.292h-.083q-1.336,0-3.506,2.087A47.535,47.535,0,0,0,41.908,14.526Zm-1.127,2.045v.25a.592.592,0,0,0,.5-.626v-.042h-.25A.432.432,0,0,0,40.781,16.571Zm4.341,1.085v.125h.292a8.323,8.323,0,0,1,2.8-.5v-.042a1.321,1.321,0,0,0-.96-.292h-.417A2.63,2.63,0,0,0,45.122,17.657Zm-1.21.751-.877.668V19.2q.334,0,1.044-.71v-.083Zm7.3.417v.167a2.764,2.764,0,0,0,1.336,1.586h.292v-.125Q51.759,18.867,51.216,18.825Zm-4.341.083-.125.083v.083H47l.125-.083L47,18.909Zm2.964.334h-.376v.125l.125.167h.083l.167-.167Zm-8.807,3.131-.083.125a15.838,15.838,0,0,0,1.711,5.969,7.385,7.385,0,0,0,3.131,1.419q3.047,0,4.717-3.423l.167-1.044q0-3.715-1.169-4.842a6.91,6.91,0,0,0-3.882-1.044,18.682,18.682,0,0,0-2.838,1.628A2.937,2.937,0,0,0,41.032,22.373Zm10.018-1.711-.668.125v.125a1.379,1.379,0,0,1,.543.96h.125L51.133,21v-.042ZM39.571,21.789v.167q0,.125.167.125.334,0,.96-.668V21.33l-.167-.167A1.1,1.1,0,0,0,39.571,21.789Zm13.107.584-.083.083v.793l.25.209.125-.125v-.5q0-.376-.209-.459Zm-1.127.334h-.167l-.083.209v.292l.083.083h.042q.167,0,.167-.5Zm-11.771.543a17.232,17.232,0,0,0,1,2.838h.042L40.906,26a12.122,12.122,0,0,0-.71-3.214Q39.779,22.791,39.779,23.25Zm-.543,1H39.07v.417l.083.125h.167V24.5Zm13.023.209-.167.209v.125l.042.292h.042a.5.5,0,0,0,.25-.5Zm-1.085.334-.125.167V25l.167.125h.125L51.467,25v-.042l-.083-.167Zm-11.854.292-.167.167v.292q.25,1.544.584,1.544l.042-.125v-.459Q39.779,25.086,39.32,25.086Zm12.272.751h-.125v.083l.167.167h.083V26ZM40.823,27.09h-.167v.167l.209.209h.083v-.209Zm10.727.25-.835,1.127v.083l.167.125a4.093,4.093,0,0,0,.835-1.336Zm-11.479.417-.042.209q.125.209.167.209h.083v-.042A.359.359,0,0,0,40.072,27.758Zm1.21.417L41.2,28.3v.125q.417.668.877.668h.042V29.01q0-.167-.793-.835Zm8.39,1-1.461,1.044v.042l.125.083q.71,0,1.5-1.044v-.125Zm-6.3.71a.628.628,0,0,0,.209.334h.209q.376,0,.459-.25v-.042q0-.167-.543-.209h-.25Q43.369,29.72,43.369,29.887Zm1.461.25H44.7v.125l.125.083h.083v-.083Zm.209.417a1.388,1.388,0,0,0,.751.209,1.414,1.414,0,0,0,.96-.292v-.083H45.623Q45.039,30.388,45.039,30.555Zm4.508-.083-1.252.626v.083h.125a1.587,1.587,0,0,0,1.252-.668v-.042Z" transform="matrix(0.999, -0.052, 0.052, 0.999, -3.758, -12.546)"/><line class="c" x1="56" y1="2" transform="translate(-1 25.804)"/></g><g transform="matrix(0.588, 0.809, -0.809, 0.588, 49.692, 113.26)"><path class="b" d="M13.369,12.408c.424,1.945-1.688,2.367-2.619,2.114a16.3,16.3,0,0,0-2.828-.3,16.35,16.35,0,0,0-2.833.3c-.93.255-3.044-.169-2.622-2.114s2.283-1.861,2.793-4.483a2.671,2.671,0,0,1,5.324,0C11.089,10.547,12.946,10.462,13.369,12.408ZM9.874,5.3A2.489,2.489,0,0,0,12.7,3.281,2.489,2.489,0,0,0,11.383.068,2.489,2.489,0,0,0,8.557,2.087,2.489,2.489,0,0,0,9.874,5.3Zm4.745-.526a2.489,2.489,0,0,0-3.025,1.706,2.488,2.488,0,0,0,.967,3.335,2.49,2.49,0,0,0,3.025-1.706A2.488,2.488,0,0,0,14.619,4.775ZM5.961,5.3A2.489,2.489,0,0,0,7.278,2.087,2.489,2.489,0,0,0,4.452.07,2.491,2.491,0,0,0,3.134,3.283,2.489,2.489,0,0,0,5.961,5.3ZM3.275,9.815a2.489,2.489,0,0,0,.967-3.335A2.49,2.49,0,0,0,1.217,4.775,2.489,2.489,0,0,0,.25,8.109,2.488,2.488,0,0,0,3.275,9.815Z" transform="translate(0.959 14.128) rotate(31)"/></g></g></svg>