<svg xmlns="http://www.w3.org/2000/svg" width="35" height="35" viewBox="0 0 35 35"><defs><style>.a{fill:#fff;}</style></defs><g transform="translate(-339 -165.89)"><path class="a" d="M561.493,385.636a2.746,2.746,0,1,1-2.746-2.746,2.746,2.746,0,0,1,2.746,2.746Zm0,0" transform="translate(-202.246 -202.246)"/><path class="a" d="M491.04,303.759a3.428,3.428,0,0,0-1.965-1.965,5.727,5.727,0,0,0-1.922-.356c-1.092-.05-1.419-.061-4.183-.061s-3.091.01-4.183.06a5.731,5.731,0,0,0-1.922.356,3.429,3.429,0,0,0-1.965,1.965,5.729,5.729,0,0,0-.356,1.922c-.05,1.091-.061,1.419-.061,4.183s.011,3.091.061,4.183a5.727,5.727,0,0,0,.356,1.922,3.428,3.428,0,0,0,1.965,1.965,5.722,5.722,0,0,0,1.922.356c1.091.05,1.419.06,4.183.06s3.092-.01,4.183-.06a5.722,5.722,0,0,0,1.922-.356,3.428,3.428,0,0,0,1.965-1.965,5.733,5.733,0,0,0,.356-1.922c.05-1.092.06-1.419.06-4.183s-.011-3.091-.06-4.183a5.72,5.72,0,0,0-.356-1.922Zm-8.069,11.42a5.315,5.315,0,1,1,5.315-5.315,5.315,5.315,0,0,1-5.315,5.315Zm5.526-9.6a1.242,1.242,0,1,1,1.242-1.242,1.242,1.242,0,0,1-1.242,1.242Zm0,0" transform="translate(-126.471 -126.474)"/><path class="a" d="M356.5,165.89a17.5,17.5,0,1,0,17.5,17.5,17.5,17.5,0,0,0-17.5-17.5Zm10.464,21.84a7.725,7.725,0,0,1-.489,2.555,5.382,5.382,0,0,1-3.079,3.079,7.73,7.73,0,0,1-2.555.489c-1.123.051-1.481.064-4.34.064s-3.218-.012-4.34-.064a7.73,7.73,0,0,1-2.555-.489,5.383,5.383,0,0,1-3.079-3.079,7.722,7.722,0,0,1-.489-2.555c-.052-1.123-.064-1.481-.064-4.34s.012-3.218.064-4.34a7.725,7.725,0,0,1,.489-2.555,5.387,5.387,0,0,1,3.079-3.079,7.731,7.731,0,0,1,2.555-.489c1.122-.051,1.481-.064,4.34-.064s3.218.012,4.34.064a7.732,7.732,0,0,1,2.555.489,5.385,5.385,0,0,1,3.079,3.079,7.721,7.721,0,0,1,.49,2.555c.051,1.123.063,1.481.063,4.34s-.012,3.218-.064,4.34Zm-.476-.2" transform="translate(0 0)"/></g></svg>